<svg viewBox="0 0 16 16" xmlns="http://www.w3.org/2000/svg">
    <path fill="#FF8700" d="M11.3679874,11.0083519 C9.3376355,11.0083519 6.35535855,3.9804233 6.35535855,1.64136983 C6.35535855,0.779716337 6.56191206,0.492498505 6.85227293,0.2463957 C4.36691036,0.533417746 1.38423809,1.43638205 0.431127039,2.58525338 C0.224178208,2.872667 0.0998507814,3.32395337 0.0998507814,3.89819324 C0.0998507814,7.55038236 4.03523879,15.8385844 6.81096223,15.8385844 C8.09495422,15.8385844 10.2607024,13.7460254 12.0420041,10.9151579 C11.8046158,10.984466 11.6154563,11.0083519 11.3679874,11.0083519 Z"/>
    <path fill="#FF8700" d="M15.8864573,1.84645629 C15.8864573,4.75994541 14.0217192,8.28878945 13.0684903,8.28878945 C11.369643,8.28878945 9.25616776,3.61126987 9.25616776,1.27221641 C9.25616776,0.205379349 9.67059792,0 10.7476023,0 C13.316832,0 15.8864573,0.410367127 15.8864573,1.84645629 Z"/>
    <path fill="#FFF" d="M7.99667224,-5.3966204e-14 C8.07285677,0.0389747049 8.15114294,0.0744062548 8.22470042,0.116924115 C8.44597951,0.24590557 8.58469521,0.473803834 8.59349141,0.722816788 C8.6022876,0.971829741 8.47997486,1.20828552 8.26830949,1.35146055 C8.15114294,1.43345928 8.11068633,1.49926073 8.14326178,1.63693761 C8.34501943,2.49033179 8.53154018,3.34726914 8.7369757,4.20015716 C8.79415833,4.4925833 9.03489051,4.71944277 9.3396216,4.76807429 C9.66222367,4.83134491 9.927556,4.72656876 10.1277374,4.47601708 C10.3016483,4.25532914 10.4661018,4.02755489 10.6305553,3.80737312 C10.274327,3.34321982 10.238599,3.03749616 10.4928977,2.7201307 C10.6955962,2.46519227 11.0491625,2.37058839 11.3592997,2.48830713 C11.6824272,2.61332989 11.8589652,2.90184394 11.8321692,3.2566656 C11.8001192,3.64337566 11.5652607,3.82964438 10.9452762,3.94403767 C10.8795999,4.34137719 10.7934326,4.74529686 10.7524506,5.15377202 C10.7225022,5.4519032 10.8722442,5.69638089 11.1470339,5.84620573 C11.4097391,5.99096892 11.6934608,5.98894426 11.9430308,5.82292214 C12.3108182,5.57895061 12.6659958,5.31675715 13.0138175,5.04899586 C13.0626807,5.01103349 13.0663586,4.87285044 13.0411389,4.79895035 C12.8903461,4.38338889 13.0968324,3.93290204 13.5092797,3.81091627 C13.7123575,3.74808854 13.9335074,3.77051391 14.1185558,3.87269899 C14.3036041,3.97488408 14.4354567,4.14738933 14.4818146,4.34795734 C14.5351212,4.56934507 14.479801,4.8020509 14.331794,4.97902299 C14.1837871,5.15599508 13.9595326,5.25757697 13.7236472,5.25449885 C13.6464118,5.25449885 13.5697019,5.24184473 13.4719755,5.23323992 C13.2029653,5.97561525 12.9348308,6.71444743 12.667572,7.44973645 C12.5351685,7.81518758 12.3969856,8.17912021 12.277192,8.54862066 C12.2246509,8.71261812 12.1384836,8.76728394 11.9587932,8.76627161 C10.1639907,8.75969147 8.36918832,8.76222229 6.5743859,8.76171613 C5.62864691,8.76171613 4.68290793,8.75462982 3.73716895,8.76627161 C3.53225884,8.7693086 3.44871856,8.70148249 3.38566929,8.52280625 C3.02523766,7.50288377 2.6537724,6.48650446 2.28545961,5.46961898 C2.25708744,5.3911634 2.2250374,5.31422632 2.20454639,5.26158516 C2.01697482,5.24437555 1.84726722,5.25399269 1.69489816,5.21096866 C1.49973456,5.15267526 1.33810768,5.0195195 1.2480436,4.84282903 C1.15797951,4.66613855 1.14742969,4.4615128 1.2188762,4.27709424 C1.30396008,4.02588097 1.52429858,3.83923974 1.79380693,3.79009003 C2.06331528,3.74094031 2.33922067,3.83708252 2.51372871,4.04095452 C2.68823675,4.24482652 2.73365182,4.52407244 2.63223057,4.76959278 C2.55919851,4.93763956 2.59335019,5.02014446 2.73731268,5.1178343 C3.04572867,5.32536195 3.34206022,5.54959305 3.64259505,5.76775016 C3.92211346,5.97021616 4.22054665,6.00362305 4.52528477,5.83608243 C4.8210909,5.67360347 4.94876567,5.41343466 4.90935988,5.09050139 C4.87258114,4.78983938 4.80427777,4.49221436 4.7711769,4.19104619 C4.75068589,3.98858019 4.68028088,3.90556913 4.45593058,3.89342117 C4.16380231,3.87823622 3.91580853,3.63578319 3.85275927,3.36903423 C3.77298138,3.06547754 3.89483347,2.74587472 4.15959903,2.56423188 C4.4119434,2.3961155 4.74532243,2.39370675 5.0002559,2.5581579 C5.17635252,2.67296555 5.2956171,2.85255382 5.33000923,3.05469957 C5.36440137,3.25684532 5.31088701,3.46371533 5.18204795,3.62667222 C5.14054052,3.67981954 5.09272816,3.72790521 5.03283135,3.79573132 C5.22408079,4.04881382 5.40061874,4.31100729 5.60710508,4.54637402 C5.80203239,4.76655579 6.06894095,4.84399904 6.36842496,4.76807429 C6.68787457,4.68658172 6.87439532,4.47652325 6.94637656,4.17434274 C7.10872842,3.48443985 7.26424994,2.79352463 7.42239852,2.10311557 C7.4413133,2.02111684 7.45444856,1.93709345 7.47914285,1.85661322 C7.54902246,1.62529581 7.57319134,1.45168122 7.31311312,1.26085701 C6.91905521,0.971836797 7.03517094,0.342167539 7.47546498,0.104776155 C7.54271753,0.0683322748 7.61207172,0.0349253849 7.68037509,-5.68434189e-14 L7.99667224,-5.3966204e-14 Z"/>
    <polygon fill="#FFF" points="3.63245539 11.2874795 3.63245539 9.80694685 12.5807975 9.80694685 12.5807975 11.2874795"/>
</svg>
