<svg viewBox="0 0 32 32" xmlns="http://www.w3.org/2000/svg">
    <path d="M8.716 16.352a2.497 2.497 0 00-.585.04 2.456 2.456 0 00-2.027 2.854c.14 1.323 1.55 2.439 2.856 2.472.134.003.269-.006.4-.027 1.414-.228 1.784-1.684 1.55-3.115-.262-1.614-1.413-2.184-2.194-2.224zm1.384 3.826a.593.593 0 01-.551.26.743.743 0 01-.684-.75c-.003-.25.045-.5.142-.731a.665.665 0 00-.272-.823.77.77 0 00-.562-.1.722.722 0 00-.46.302c-.073.117-.13.244-.169.376a1.257 1.257 0 01-.018.053c-.064.163-.166.211-.236.202a.135.135 0 01-.106-.1 1.386 1.386 0 01.391-1.208 1.267 1.267 0 011.053-.36c.408.049.765.296.956.66.183.438.14.938-.117 1.338l-.043.093a.528.528 0 00-.014.511c.074.099.191.155.314.151a.722.722 0 00.171-.023c.073-.016.148-.032.193.022a.107.107 0 01.012.127z" fill="#FFF"/>
    <path d="M26.772 22.89c.294-.747.465-1.539.504-2.342 0-.987-.559-1.396-.915-1.396-.01-.039-.081-.296-.178-.606a4.869 4.869 0 00-.197-.528c.291-.403.414-.903.344-1.394a1.764 1.764 0 00-.514-.997 4.179 4.179 0 00-1.814-.897l-.462-.128c-.002-.02-.024-1.088-.044-1.547a5.294 5.294 0 00-.204-1.359 3.64 3.64 0 00-.943-1.68c1.15-1.192 1.87-2.504 1.868-3.63-.004-2.164-2.666-2.82-5.947-1.463l-.695.295a758.172 758.172 0 00-1.276-1.248C12.56.712.863 13.694 4.603 16.846l.817.692a4.005 4.005 0 00-.227 1.852c.11.911.561 1.748 1.262 2.342.68.617 1.558.97 2.476.995 1.455 3.349 4.78 5.403 8.678 5.519 4.182.124 7.692-1.836 9.163-5.355zm.858-3.962c.358.462.542 1.036.52 1.62a8.14 8.14 0 01-.563 2.659l-.008.02a9.223 9.223 0 01-3.78 4.372 11.258 11.258 0 01-5.817 1.525c-.132 0-.266-.002-.399-.005a11.291 11.291 0 01-5.696-1.682 9.751 9.751 0 01-3.532-3.878 4.833 4.833 0 01-2.48-1.174 4.517 4.517 0 01-1.553-2.908 5.031 5.031 0 01.095-1.644l-.38-.32a2.974 2.974 0 01-1.027-2.124 6.031 6.031 0 01.427-2.462c.779-2.126 2.57-4.658 4.793-6.773a17.85 17.85 0 013.278-2.515 6.807 6.807 0 013.299-1.062 3.05 3.05 0 012.067.735c.033.029.524.51.897.874l.162-.069a9.342 9.342 0 013.488-.774c2.227 0 3.667 1.194 3.67 3.042.002 1.14-.558 2.419-1.59 3.656.28.434.493.909.63 1.407a6.19 6.19 0 01.239 1.57c.01.227.02.594.028.918a4.88 4.88 0 012.051 1.089c.398.394.658.905.744 1.458a2.688 2.688 0 01-.242 1.602 6.752 6.752 0 01.122.38c.214.116.404.274.557.463z" fill="#FFF"/>
    <path d="M24.98 17.847a1.32 1.32 0 00.413-1.047.91.91 0 00-.26-.516 3.247 3.247 0 00-1.428-.684c-.24-.068-.403-.112-.578-.17-.312-.104-.466-.187-.5-.78-.016-.259-.06-1.162-.077-1.535-.028-.654-.106-1.547-.654-1.916a.913.913 0 00-.469-.151.877.877 0 00-.278.027 1.47 1.47 0 00-.729.417 2.494 2.494 0 01-1.904.642c-.383-.016-.79-.076-1.256-.104l-.273-.016a2.512 2.512 0 00-2.42 2.217c-.268 1.857 1.062 2.816 1.446 3.379.06.072.096.16.106.252a.405.405 0 01-.137.266 4.792 4.792 0 00-1.035 4.465c.05.185.116.366.195.541.97 2.292 3.98 3.36 6.92 2.39a7.177 7.177 0 001.118-.478 5.875 5.875 0 001.71-1.293 5.165 5.165 0 001.425-2.824c.088-.59-.041-.82-.218-.93a.645.645 0 00-.41-.075 5.751 5.751 0 00-.392-1.349l-.316-.728zM20.16 8.993c.048.011.078-.071.035-.095a5.32 5.32 0 00-2.268-.593.041.041 0 01-.032-.066c.123-.161.266-.305.426-.428a.043.043 0 00-.028-.076c-.968.095-1.9.423-2.713.956a.042.042 0 01-.064-.044c.065-.244.162-.48.287-.7a.04.04 0 00-.054-.054 11.01 11.01 0 00-3.09 2.522.042.042 0 00.056.062 9.448 9.448 0 013.336-1.473 9.248 9.248 0 014.11-.01M16.699 5.677s-1.018-1.179-1.326-1.265c-1.89-.51-5.975 2.302-8.582 6.018-1.056 1.504-2.566 4.166-1.844 5.536.257.307.546.586.863.83a3.216 3.216 0 012.032-1.293 16.515 16.515 0 015.214-7.32A26.63 26.63 0 0116.7 5.678" fill="#FFF"/>
    <path d="M10.032 20.127c.03.036.034.087.011.128a.562.562 0 01-.53.265.737.737 0 01-.657-.762 1.958 1.958 0 01.137-.743.695.695 0 00-.262-.836.706.706 0 00-.982.205c-.07.12-.125.249-.162.382a1.156 1.156 0 01-.018.054c-.061.166-.16.215-.226.206-.031-.005-.074-.026-.102-.102-.07-.445.068-.897.376-1.227a1.178 1.178 0 011.011-.366c.4.055.745.307.919.67a1.54 1.54 0 01-.112 1.36l-.042.094a.562.562 0 00-.013.52.357.357 0 00.302.153.66.66 0 00.164-.024c.07-.016.142-.033.186.023zm17.207.43a7.385 7.385 0 01-.502 2.337c-1.46 3.512-4.948 5.467-9.102 5.343-3.873-.115-7.176-2.165-8.622-5.506a3.807 3.807 0 01-2.46-.994A3.644 3.644 0 015.3 19.4a4.013 4.013 0 01.225-1.848l-.812-.69C1 13.716 12.617.762 16.333 4.013c.02.017 1.265 1.242 1.268 1.245l.69-.294c3.26-1.354 5.905-.7 5.908 1.46.002 1.123-.712 2.433-1.855 3.621.457.465.78 1.045.937 1.678a5.3 5.3 0 01.202 1.356c.02.458.042 1.524.044 1.543.03.01.36.1.46.128a4.144 4.144 0 011.801.895c.273.268.452.617.51.995.07.49-.052.989-.341 1.391.075.172.14.348.196.527.096.31.166.566.177.604.353 0 .909.409.909 1.394zm-16.417-1.928c-.253-1.64-1.359-2.218-2.11-2.26a2.275 2.275 0 00-.562.04c-1.34.272-2.096 1.415-1.947 2.9a3 3 0 002.745 2.51c.129.004.258-.005.385-.027 1.357-.232 1.713-1.71 1.489-3.163zm2.29-10.411a26.456 26.456 0 013.618-2.502s-1.01-1.176-1.316-1.263c-1.879-.509-5.936 2.298-8.527 6.006-1.048 1.5-2.549 4.158-1.831 5.524.255.307.542.585.857.83a3.194 3.194 0 012.019-1.292 16.478 16.478 0 015.18-7.303zm4.082 12.978c.101.444.438.797.877.92.224.083.455.146.69.188 2.971.512 5.75-1.192 6.375-1.621.047-.032.078 0 .04.056a.995.995 0 01-.061.088c-.766.99-2.823 2.137-5.5 2.136-1.168 0-2.335-.412-2.764-1.046-.665-.984-.033-2.42 1.075-2.27l.485.055a10.12 10.12 0 005.041-.81c1.512-.703 2.082-1.478 1.997-2.105a.902.902 0 00-.26-.512 3.259 3.259 0 00-1.43-.679c-.24-.068-.402-.11-.578-.169-.312-.103-.466-.186-.501-.774-.015-.257-.06-1.154-.076-1.524-.029-.65-.106-1.537-.655-1.903a.918.918 0 00-.47-.15.885.885 0 00-.278.027 1.474 1.474 0 00-.73.414 2.51 2.51 0 01-1.905.638c-.384-.017-.791-.077-1.258-.104l-.273-.016a2.508 2.508 0 00-2.423 2.202c-.267 1.843 1.064 2.796 1.448 3.355.06.071.096.159.106.25a.402.402 0 01-.137.265 4.73 4.73 0 00-1.036 4.433c.051.184.116.364.195.538.971 2.276 3.984 3.336 6.928 2.372.385-.126.759-.285 1.118-.474a5.878 5.878 0 001.712-1.283 5.115 5.115 0 001.426-2.805c.088-.587-.041-.814-.218-.923a.65.65 0 00-.411-.075 5.678 5.678 0 00-.392-1.34 8.576 8.576 0 01-2.803 1.4 11.32 11.32 0 01-3.749.406c-.813-.066-1.35-.304-1.553.355a8.762 8.762 0 003.823.39.07.07 0 01.076.062.074.074 0 01-.043.074s-1.51.703-3.908-.04zm-4.422-10.69a9.365 9.365 0 013.315-1.47 9.147 9.147 0 014.082-.01c.047.01.077-.072.035-.095a5.269 5.269 0 00-2.253-.593.041.041 0 01-.033-.066 2.3 2.3 0 01.425-.426.043.043 0 00-.029-.076 5.97 5.97 0 00-2.695.954.042.042 0 01-.064-.044c.065-.244.16-.478.285-.698a.04.04 0 00-.053-.055 10.95 10.95 0 00-3.07 2.517.042.042 0 00.055.062zm7.825 6.258c.168.106.39.07.514-.086.075-.145-.034-.342-.243-.44a.392.392 0 00-.515.086c-.075.145.034.342.244.44zm.642-2.353c.05.262.158.508.316.722.164-.02.33-.02.493 0 .096-.287.104-.596.024-.887-.118-.538-.278-.863-.609-.813-.33.051-.343.44-.224.978zm.703 1.236a.415.415 0 10.3.406.365.365 0 00-.3-.406z"/>
    <path d="M16.45 15.599c-.052-.008-.075-.03-.082-.06-.02-.093.123-.246.273-.356a1.585 1.585 0 011.542-.185c.234.097.436.26.581.468.054.088.064.156.03.191-.055.057-.193-.008-.418-.107a1.84 1.84 0 00-.87-.187c-.355.059-.708.137-1.056.236zm2.242.461a.852.852 0 00-.768-.252 1.06 1.06 0 00-.558.233.358.358 0 00-.143.223.07.07 0 00.07.072.893.893 0 00.215-.06c.3-.113.625-.147.943-.098.147.017.217.026.249-.024a.083.083 0 00-.008-.094z"/>
    <path d="M18.275 16.195c.093-.33.098-.68.015-1.013-.12-.538-.3-.846-.636-.795-.335.05-.344.484-.236 1.025.05.248.147.484.285.695.267.373.448.277.571.088z"/>
</svg>
