<svg viewBox="0 0 32 32" xmlns="http://www.w3.org/2000/svg">
    <ellipse fill="#FEF379" cx="11.903" cy="16" rx="11.679" ry="11.314"/>
    <ellipse fill="#44873E" cx="20.079" cy="11.474" rx="11.679" ry="11.314"/>
    <ellipse fill="#B44040" cx="20.079" cy="20.525" rx="11.679" ry="11.314"/>
    <circle fill="#3A3A3A" cx="16" cy="16" r="10"/>
    <path d="M12.406 16.174a1.232 1.232 0 00-.289.02 1.212 1.212 0 00-1 1.408c.07.652.766 1.203 1.41 1.22.066 0 .132-.004.197-.014.698-.113.88-.831.765-1.537-.13-.797-.697-1.077-1.083-1.097zm.683 1.887a.292.292 0 01-.272.129.366.366 0 01-.337-.37.904.904 0 01.07-.361.328.328 0 00-.135-.406.38.38 0 00-.277-.05.356.356 0 00-.227.15.768.768 0 00-.092.211c-.032.08-.082.104-.116.1a.067.067 0 01-.053-.05.684.684 0 01.193-.595.625.625 0 01.991.147.713.713 0 01-.057.66l-.022.046a.26.26 0 00-.006.253.186.186 0 00.154.074.356.356 0 00.085-.01c.036-.009.073-.017.095.01a.053.053 0 01.006.062z" fill="#FFF"/>
    <path d="M21.315 19.4c.145-.37.229-.76.248-1.156 0-.487-.275-.69-.451-.69-.005-.018-.04-.145-.088-.298a2.402 2.402 0 00-.097-.26.944.944 0 00.17-.688.87.87 0 00-.254-.492 2.062 2.062 0 00-.895-.443l-.228-.063c0-.01-.012-.536-.022-.763a2.612 2.612 0 00-.1-.67 1.796 1.796 0 00-.465-.83c.567-.587.922-1.235.92-1.79 0-1.068-1.314-1.391-2.933-.722l-.343.145c-.001-.001-.62-.607-.63-.615-1.845-1.608-7.615 4.797-5.77 6.353l.403.34a1.976 1.976 0 00-.112.914 1.8 1.8 0 00.622 1.156c.336.304.77.479 1.222.491.718 1.652 2.358 2.666 4.282 2.723 2.063.06 3.795-.906 4.52-2.642zm.423-1.955c.177.228.268.51.257.799-.019.45-.113.893-.278 1.312l-.004.01a4.55 4.55 0 01-1.865 2.157 5.555 5.555 0 01-2.87.752c-.065 0-.132 0-.197-.003a5.57 5.57 0 01-2.81-.83 4.811 4.811 0 01-1.743-1.913 2.385 2.385 0 01-1.224-.579 2.228 2.228 0 01-.766-1.435 2.482 2.482 0 01.047-.81l-.187-.159a1.467 1.467 0 01-.507-1.048 2.976 2.976 0 01.21-1.214c.385-1.05 1.269-2.298 2.365-3.342a8.806 8.806 0 011.618-1.24 3.358 3.358 0 011.627-.525c.374-.01.737.12 1.02.363.017.014.259.251.443.431l.08-.034a4.61 4.61 0 011.72-.382c1.1 0 1.81.59 1.811 1.501.001.563-.275 1.193-.784 1.804.138.214.243.448.31.694.073.252.113.512.118.774.005.113.01.294.015.453.375.096.722.28 1.011.538.197.194.325.447.367.72.043.269.001.545-.119.79a3.332 3.332 0 01.06.187c.106.058.2.135.275.229z" fill="#FFF"/>
    <path d="M20.43 16.911a.652.652 0 00.204-.516.45.45 0 00-.128-.255 1.602 1.602 0 00-.705-.337c-.118-.034-.198-.055-.285-.084-.153-.051-.23-.093-.247-.385-.007-.128-.03-.573-.037-.757-.014-.323-.053-.764-.323-.946a.45.45 0 00-.369-.06.725.725 0 00-.36.205 1.23 1.23 0 01-.938.317c-.19-.008-.39-.038-.62-.052l-.135-.008a1.24 1.24 0 00-1.194 1.094c-.132.916.524 1.39.713 1.667.03.036.048.079.053.125a.2.2 0 01-.068.131c-.533.6-.725 1.43-.51 2.203.025.091.057.18.096.267.478 1.13 1.963 1.658 3.414 1.179.19-.063.375-.142.551-.236.318-.159.605-.375.844-.638.375-.38.62-.867.703-1.393.044-.292-.02-.404-.107-.459a.318.318 0 00-.203-.037 2.838 2.838 0 00-.193-.665l-.156-.36zM18.053 12.543c.023.005.038-.035.017-.047a2.625 2.625 0 00-1.12-.293.02.02 0 01-.015-.032c.06-.08.131-.15.21-.211a.021.021 0 00-.014-.038 2.973 2.973 0 00-1.338.472.02.02 0 01-.032-.022c.032-.12.08-.236.142-.345a.02.02 0 00-.027-.027c-.58.319-1.096.74-1.525 1.244a.02.02 0 00.028.03 4.661 4.661 0 011.646-.726 4.563 4.563 0 012.027-.005M16.345 10.907s-.503-.582-.654-.625c-.933-.251-2.948 1.136-4.235 2.97-.52.742-1.266 2.055-.91 2.731.127.152.27.29.427.41a1.587 1.587 0 011.002-.638 8.148 8.148 0 012.573-3.611 13.139 13.139 0 011.797-1.237" fill="#FFF"/>
    <path d="M13.055 18.036a.056.056 0 01.006.063.277.277 0 01-.261.13.364.364 0 01-.325-.375.966.966 0 01.068-.366.343.343 0 00-.396-.463.342.342 0 00-.218.151.806.806 0 00-.089.215c-.03.082-.078.106-.111.102-.016-.002-.037-.013-.05-.05a.722.722 0 01.185-.606.581.581 0 01.952.15.76.76 0 01-.055.671 1.984 1.984 0 00-.02.047.277.277 0 00-.007.256c.034.049.09.077.149.076a.326.326 0 00.08-.012c.035-.008.07-.016.092.01v.001zm8.49.212c-.02.395-.103.785-.247 1.153-.721 1.733-2.442 2.698-4.492 2.637-1.91-.057-3.54-1.069-4.253-2.717a1.879 1.879 0 01-1.214-.49 1.798 1.798 0 01-.618-1.153 1.98 1.98 0 01.111-.912l-.4-.34c-1.833-1.553 3.9-7.944 5.733-6.34l.625.614.34-.145c1.609-.668 2.914-.345 2.915.72.001.555-.351 1.2-.915 1.787.225.23.385.515.462.828.062.217.096.442.1.669.01.226.02.752.022.761.014.005.177.05.226.063.328.072.634.224.89.442a.87.87 0 01.25.49.945.945 0 01-.168.687c.038.085.07.172.097.26.048.153.082.28.087.298.175 0 .449.202.449.688zm-8.1-.951c-.124-.81-.67-1.094-1.04-1.115a1.122 1.122 0 00-.278.02c-.66.134-1.034.698-.96 1.43.11.677.67 1.19 1.354 1.24a.983.983 0 00.19-.014c.67-.115.845-.844.734-1.561zm1.13-5.137c.56-.46 1.157-.873 1.785-1.234 0 0-.499-.58-.65-.623-.926-.251-2.928 1.134-4.206 2.963-.517.74-1.258 2.052-.904 2.726.126.151.268.288.423.409.237-.334.594-.562.996-.637a8.13 8.13 0 012.556-3.604zm2.014 6.404c.05.219.216.393.433.453.11.041.224.073.34.093 1.466.253 2.837-.588 3.145-.8.024-.015.039 0 .02.028a.49.49 0 01-.03.043c-.378.489-1.393 1.055-2.714 1.055-.576 0-1.152-.204-1.363-.517-.328-.485-.016-1.194.53-1.12l.24.027a4.993 4.993 0 002.487-.399c.745-.347 1.027-.73.985-1.038a.445.445 0 00-.129-.253 1.608 1.608 0 00-.705-.335c-.118-.034-.198-.055-.285-.084-.154-.05-.23-.091-.247-.382-.008-.127-.03-.569-.038-.752-.014-.32-.052-.758-.323-.938a.453.453 0 00-.232-.075.437.437 0 00-.137.014.727.727 0 00-.36.204 1.238 1.238 0 01-.94.315c-.19-.008-.39-.038-.62-.052l-.135-.007a1.237 1.237 0 00-1.196 1.086c-.132.91.525 1.38.715 1.655a.23.23 0 01.052.124.198.198 0 01-.068.13 2.334 2.334 0 00-.51 2.188c.024.09.057.18.095.265.48 1.123 1.966 1.646 3.418 1.17.19-.062.375-.14.552-.233a2.9 2.9 0 00.845-.634c.374-.375.62-.86.703-1.383.044-.29-.02-.402-.107-.456a.32.32 0 00-.203-.037 2.802 2.802 0 00-.193-.66 4.231 4.231 0 01-1.383.69 5.585 5.585 0 01-1.85.2c-.401-.032-.666-.15-.766.175.607.203 1.25.269 1.886.193a.034.034 0 01.037.03.036.036 0 01-.021.037s-.745.347-1.928-.02zm-2.181-5.275a4.62 4.62 0 011.635-.725 4.513 4.513 0 012.014-.005c.023.005.038-.035.017-.047a2.6 2.6 0 00-1.112-.292.02.02 0 01-.016-.033c.06-.079.131-.15.21-.21a.021.021 0 00-.014-.038 2.946 2.946 0 00-1.33.471.02.02 0 01-.032-.021c.033-.12.08-.236.141-.345a.02.02 0 00-.026-.027 5.402 5.402 0 00-1.515 1.242.02.02 0 00.028.03zm3.86 3.088a.193.193 0 00.254-.042c.037-.072-.017-.17-.12-.217a.193.193 0 00-.254.042c-.037.071.017.169.12.217zm.317-1.16c.024.128.078.25.156.355.08-.01.162-.01.243 0a.753.753 0 00.012-.437c-.058-.266-.137-.426-.3-.401-.164.025-.17.217-.111.482zm.347.609a.205.205 0 10.148.2.18.18 0 00-.148-.2z"/>
    <path d="M16.222 15.802c-.026-.004-.037-.015-.04-.03-.01-.045.06-.12.134-.175a.782.782 0 01.76-.091.652.652 0 01.288.23c.026.044.031.077.014.095-.027.028-.095-.004-.206-.053a.908.908 0 00-.429-.092c-.175.029-.35.067-.52.116zm1.106.228a.42.42 0 00-.379-.125.523.523 0 00-.275.115.177.177 0 00-.07.11c0 .01.003.02.01.027.007.005.016.009.024.009a.44.44 0 00.106-.03.92.92 0 01.465-.048c.073.008.107.013.123-.012a.04.04 0 00-.004-.046z"/>
    <path d="M17.128 16.096a.964.964 0 00.008-.5c-.06-.265-.15-.417-.318-.392-.168.025-.172.24-.118.506a.967.967 0 00.143.343c.133.184.224.136.285.043z"/>
</svg>
